<svg xmlns="http://www.w3.org/2000/svg" version="1.1" xmlns:xlink="http://www.w3.org/1999/xlink" xmlns:svgjs="http://svgjs.dev/svgjs" viewBox="0 0 5.593298536376501 4.3772354438613315"><g transform="matrix(1,0,0,1,2.8027512455758012,4.153017810797427)"><g transform="matrix(1,0,0,1,0,0)"><path d=" M -2.363040245302712 -1.4832013996572262 L -2.272658753131864 -2.0487791776839135 L -2.0233802269257284 -2.0089435157467195 L -2.048421987331121 -1.8522403803173302 L -2.1511228114740746 -1.8686523648291722 L -2.1787843252757235 -1.695555670616401 L -2.024974170808108 -1.6709762196338769 L -2.001011132389409 -1.8209290661524615 L -1.8607015557434021 -1.7985070591433252 L -1.8846645941621012 -1.6485542126247408 L -1.7265149682518255 -1.6232812975079134 L -1.7141867169753242 -1.7004274564885358 L -1.5820739197210087 -1.6793153261775278 L -1.632080388961316 -1.3663912188123786 L -1.7641931862156317 -1.3875033491233866 L -1.752096089650565 -1.463203017623122 L -2.2043654466744633 -1.5354773907316097 L -2.21646254323953 -1.4597777222318742 L -2.363040245302712 -1.4832013996572262 M -2.1712899862275172 -2.369909551650338 L -2.049647655600402 -2.562781563350544 L -1.7952383211093383 -2.4023282963991464 Q -1.8021723492138595 -2.440761132682179 -1.79640535145721 -2.4778223059348377 Q -1.7906383537005603 -2.514883479187496 -1.7684978866699292 -2.5499886633299322 Q -1.7197888592025408 -2.6272200684432905 -1.6508430006270463 -2.6408875322715284 Q -1.581897142051552 -2.6545549960997654 -1.498883706608851 -2.6021993034743907 L -1.3456599028812783 -2.5055626767877537 L -1.3060675383088554 -2.5683390060777564 L -1.192904944720298 -2.49696855941431 L -1.3135053710165594 -2.3057485563796303 L -1.5509816166859778 -2.4555223039397824 Q -1.5869128051611767 -2.47818372313584 -1.618763385036929 -2.473448434117097 Q -1.650613964912681 -2.468713145098354 -1.6683263385371858 -2.440628997784405 Q -1.6800477622592846 -2.422043900297233 -1.6835279404835501 -2.393642883411176 Q -1.6870081187078156 -2.3652418665251185 -1.6812497231880175 -2.3304368975702734 L -1.5201788782991945 -2.2288512253120834 L -1.4805865137267717 -2.291627554602086 L -1.3674239201382141 -2.22025710793864 L -1.5286586153377517 -1.9646087669484311 L -1.6418212089263093 -2.0359792136118773 L -1.60014503569218 -2.102059560232933 L -2.0164512194048303 -2.3646194516079473 L -2.0581273926389594 -2.298539104986892 L -2.1712899862275172 -2.369909551650338 M -1.2896258307800474 -2.7432428754859397 Q -1.321239297191702 -2.788464060543245 -1.3325283643368726 -2.839552993672015 Q -1.3438174314820432 -2.8906419268007855 -1.3353063695818588 -2.9406786590334524 Q -1.3267953076816743 -2.9907153912661193 -1.2984062755127657 -3.0361797369744488 Q -1.2700172433438568 -3.0816440826827787 -1.2215945584594858 -3.1154956706103025 Q -1.1731718735751149 -3.1493472585378264 -1.120522941371419 -3.1605353636999394 Q -1.0678740091677232 -3.171723468862053 -1.0179576992239558 -3.162532454294001 Q -0.9680413892801885 -3.15334143972595 -0.9241370426467844 -3.125053369540099 Q -0.8802326960133804 -3.0967652993542476 -0.8486192296017259 -3.0515441142969424 Q -0.8170057631900713 -3.006322929239637 -0.804976532232584 -2.9554535501559007 Q -0.7929473012750967 -2.9045841710721643 -0.8011183868413476 -2.8544872276950475 Q -0.8092894724075987 -2.8043902843179307 -0.837878598315699 -2.758786056014859 Q -0.8664677242237993 -2.713181827711788 -0.9160909715433201 -2.678490944215813 Q -0.966114406341224 -2.6435202955303545 -1.0187633385449197 -2.632332190368241 Q -1.0714122707486156 -2.6211440852061276 -1.1209283932139997 -2.630614864963663 Q -1.170444515679384 -2.6400856447211978 -1.2140885574291465 -2.6688535738357246 Q -1.2577325991789092 -2.697621502950251 -1.2896258307800474 -2.7432428754859397 M -1.169969774743461 -2.8268926671415566 Q -1.1534636285639246 -2.8032816059169456 -1.1316115021168183 -2.789067629526649 Q -1.1097593756697122 -2.7748536531363523 -1.0858813608440787 -2.770098802951743 Q -1.062003346018445 -2.765343952767133 -1.0381995119623346 -2.7700695193209754 Q -1.0143956779062242 -2.7747950858748176 -0.9935859290302962 -2.7893428757279684 Q -0.9723759926759848 -2.804170430770603 -0.9596228836044793 -2.8247034027205826 Q -0.9468697745329738 -2.8452363746705625 -0.9435350408285477 -2.869015257740062 Q -0.9402003071241214 -2.892794140809561 -0.9464451219142815 -2.917918959589721 Q -0.9526899367044418 -2.9430437783698804 -0.9694758480734619 -2.9670550270728744 Q -0.9868212898214493 -2.991866650732635 -1.0084131113849142 -3.0065604860516064 Q -1.030004932948379 -3.0212543213705785 -1.0532029951061457 -3.0258887492662887 Q -1.0764010572639122 -3.030523177161999 -1.099785243535797 -3.025197329390582 Q -1.1231694298076822 -3.0198714816191647 -1.1440996009725097 -3.004643739098147 Q -1.1651891150379214 -2.9904961367233795 -1.1782219892989105 -2.9703633522517827 Q -1.1912548635598998 -2.950230567780186 -1.195269549932193 -2.9265721069995863 Q -1.199284236304486 -2.9029136462189866 -1.1932997263979672 -2.877308968510152 Q -1.1873152164914484 -2.851704290801317 -1.169969774743461 -2.8268926671415566 M -0.5943912158110171 -3.4000949458599763 L -0.4978579340270888 -3.430050299370619 L -0.45994342861748355 -3.307868077982265 L -0.5574093991143 -3.277623300766206 L -0.4949582963409016 -3.073075048938274 Q -0.48945924593798174 -3.0553539633933986 -0.4832604512606694 -3.0452631421332126 Q -0.477061656583357 -3.035172320873027 -0.469672730546332 -3.0303076861889564 Q -0.46228380450930706 -3.025443051504886 -0.4540987355426594 -3.025426719366 Q -0.4459136665760117 -3.0254103872271143 -0.4361204350906857 -3.028449336133991 Q -0.41839934954581 -3.0339483865369106 -0.4059607021042443 -3.0416426129387855 Q -0.39352205466267853 -3.0493368393406604 -0.38144518685288387 -3.0581969266336455 L -0.33346299195306317 -2.9744150755063963 Q -0.3526157748450428 -2.952111751612056 -0.37901277192133903 -2.934206718045342 Q -0.40540976899763526 -2.9163016844786283 -0.44551538365182763 -2.9038564651457044 Q -0.47396238939491764 -2.8950290421304907 -0.5028834500844419 -2.8967907657904997 Q -0.5318045107739661 -2.8985524894505086 -0.5575412274847259 -2.9122942267856295 Q -0.5832779441954857 -2.92603596412075 -0.6041981116799269 -2.952264206615462 Q -0.625118279164368 -2.9784924491101736 -0.6369524422881393 -3.0182764312606305 L -0.7019761496119704 -3.232762626426597 L -0.771461458722141 -3.2112005603730425 L -0.8093759641317463 -3.3333827817613964 L -0.7394243106651316 -3.355089559667659 L -0.7743801614239307 -3.4710323837712123 L -0.650764420770662 -3.585056734717256 L -0.5943912158110171 -3.4000949458599763 M -0.25323805645061054 -3.2361419472052315 Q -0.25277829350907044 -3.2913158128898603 -0.2323566561260417 -3.339487161758666 Q -0.21193501874301302 -3.3876585106274724 -0.17599064128591693 -3.4234930536888006 Q -0.14004626382882088 -3.459327596750129 -0.09055661568161985 -3.4799120230098057 Q -0.041066967534418825 -3.500496449269482 0.018013012534962236 -3.5000041367391606 Q 0.07709299260434327 -3.499511824208839 0.12647686482118914 -3.478103486483128 Q 0.175860737038035 -3.456695148757417 0.2112029471026715 -3.4202665757008246 Q 0.24654515716730796 -3.383838002644232 0.265917060078945 -3.3353350548397134 Q 0.28528896299058204 -3.2868321070351945 0.2848292000490419 -3.231658241350566 Q 0.28436943710750184 -3.1764843756659373 0.2646781618223153 -3.128062791600188 Q 0.24498688653712897 -3.079641207534438 0.209284606879781 -3.043560497974764 Q 0.17358232722243305 -3.00747978841509 0.12384854692618508 -2.986897396504712 Q 0.07411476662993705 -2.966315004594334 0.013569993666273816 -2.966819523220449 Q -0.047463043595483534 -2.967328110545161 -0.09684691581232938 -2.9887364482708723 Q -0.1462307880291752 -3.0101447859965833 -0.1810847337957176 -3.046569290354578 Q -0.21593867956226004 -3.082993794712573 -0.23482028382650416 -3.131736805967541 Q -0.25370188809074834 -3.180479817222509 -0.25323805645061054 -3.2361419472052315 M -0.10724703132048702 -3.2349254063245194 Q -0.10748708453775133 -3.2061178127369696 -0.09792319915645634 -3.1818673560093598 Q -0.08835931377516132 -3.15761689928175 -0.0716606686404335 -3.1398990144487433 Q -0.05496202350570567 -3.1221811296157362 -0.03282737191438001 -3.11223071786766 Q -0.01069272032305435 -3.1022803061195834 0.014697023177836721 -3.1020687337925033 Q 0.0405750309768218 -3.101853092766825 0.06287039616275664 -3.1111891207934637 Q 0.08516576134869136 -3.1205251488201027 0.10166908848435957 -3.1379663621484655 Q 0.11817241562002773 -3.1554075754768287 0.127650837864401 -3.1794993529591284 Q 0.13712926010877424 -3.203591130441428 0.13737338202463623 -3.2328869883270714 Q 0.13762564133769367 -3.263159374808903 0.1285520546037916 -3.2876498949869624 Q 0.11947846786988947 -3.312140415165022 0.10326401833465798 -3.3293659670013365 Q 0.08704956879942649 -3.3465915188376516 0.06490881416020433 -3.355809534138587 Q 0.042768059520982116 -3.3650275494395223 0.01688598302339933 -3.3647549261671066 Q -0.008499691778894036 -3.365454762792281 -0.030790988266231167 -3.3566069990637364 Q -0.05308228475356824 -3.3477592353351913 -0.07006980748873276 -3.33081035500352 Q -0.0870573302238973 -3.3138614746718487 -0.09702605111566348 -3.2895296337391 Q -0.10699477200742963 -3.265197792806351 -0.10724703132048702 -3.2349254063245194 M 0.6574177212163668 -3.6403396403052994 L 1.1869042229347448 -3.4219567618036457 L 1.0906519226914755 -3.1885854733224854 L 0.9439485014992566 -3.2490922384657397 L 0.9836037045008356 -3.3452394037394093 L 0.8215528484761998 -3.4120761073899577 L 0.7621631313048209 -3.2680810570505185 L 0.9025470205072212 -3.2101807371749733 L 0.8483701938712612 -3.0788247508151714 L 0.7079863046688609 -3.136725070690716 L 0.6469210155396689 -2.9886674640721074 L 0.7191442382804536 -2.9588795181554284 L 0.6681323808981408 -2.8351972492118347 L 0.37517693365583266 -2.956024604836364 L 0.42618879103814555 -3.079706873779958 L 0.49705782835254053 -3.0504774518492166 L 0.6716896612890715 -3.473886095167067 L 0.6008206239746765 -3.5031155170978083 L 0.6574177212163668 -3.6403396403052994 M 1.5235635911119219 -2.837942981982586 L 1.6904209905015133 -2.6664702170569936 L 1.423763343821306 -2.406989934740935 L 1.4663290069308956 -2.363246882463998 L 1.37044423633985 -2.2699429489277776 L 1.2209536274989712 -2.42356854852438 L 1.2517487363019346 -2.453534775353531 Q 1.216903563069125 -2.45573661488487 1.1836277115492753 -2.4717290106513756 Q 1.1503518600294254 -2.487721406417881 1.1186830066758908 -2.520266237311922 Q 1.089397830456493 -2.5503614572784548 1.072966406577681 -2.5861514162945034 Q 1.0565349826988688 -2.6219413753105525 1.0563672737660788 -2.660271864055509 Q 1.0561995648332887 -2.698602352800466 1.073827934718466 -2.73789862139236 Q 1.0914563046036432 -2.7771948899842545 1.1303001350255633 -2.81499319882557 L 1.2478814595459695 -2.929409701264147 L 1.2019105433876127 -2.9766521977232387 L 1.2977953139786584 -3.069956131259459 L 1.453755903612195 -2.9096815877167628 L 1.240289808500743 -2.701961151741965 Q 1.2038955890063314 -2.6665465200347866 1.2039212926266993 -2.6304624126682143 Q 1.2039469962470675 -2.5943783053016425 1.2328916471615883 -2.5646330297533253 Q 1.2533231654541914 -2.5436363646603954 1.282956848867124 -2.5390885244482746 Q 1.3125905322800562 -2.534540684236154 1.3421285873349202 -2.5482950012426464 L 1.4842060211304113 -2.6865482750225933 L 1.4276788205208764 -2.7446390484463654 L 1.5235635911119219 -2.837942981982586 M 1.6584473948571516 -2.1564849776644888 L 1.644927219545803 -2.14952287444212 Q 1.6265018411119903 -2.136402215147605 1.6158669076615575 -2.118237977890832 Q 1.6052319742111247 -2.100073740634059 1.6013033743587561 -2.0795876475448356 Q 1.5973747745063873 -2.0591015544556126 1.6001082905832376 -2.037064378681834 Q 1.602841806660088 -2.0150272029080556 1.6109726420499557 -1.9946142869344976 Q 1.6191034774398236 -1.9742013709609396 1.6289161412430284 -1.95682351535461 Q 1.6387288050462332 -1.9394456597482808 1.6499042371920947 -1.923924595952915 Q 1.6610796693379566 -1.9084035321575492 1.6732545920869502 -1.8943317647647773 Q 1.6854295148359437 -1.8802599973720053 1.6984655533482753 -1.8660056374705944 L 1.6253487559772992 -1.7790669260924994 Q 1.5991729853929217 -1.7985993032446645 1.5794767382291242 -1.8157194819489366 Q 1.5597804910653266 -1.8328396606532087 1.5438496743033137 -1.8517224739974951 Q 1.5279188575413007 -1.8706052873417818 1.5147597024111996 -1.8937456472784067 Q 1.5016005472810987 -1.9168860072150316 1.4885912106573103 -1.9495466727727244 Q 1.464198704487707 -2.010785420693398 1.465412861040756 -2.0664560507394585 Q 1.4666270175938052 -2.1221266807855184 1.4881831705630242 -2.1682926137130596 Q 1.5097393235322434 -2.2144585466406004 1.5492329035807515 -2.249899203502266 Q 1.5887264836292598 -2.2853398603639308 1.6404392040956066 -2.3059379766849295 Q 1.6921519245619534 -2.326536093005928 1.7446510266787438 -2.3266866120732885 Q 1.7971501287955345 -2.3268371311406493 1.8439541818644356 -2.30763751528396 Q 1.8907582349333367 -2.2884378994272705 1.9283324332855538 -2.250845328858571 Q 1.965906631637771 -2.2132527582898716 1.987950229805857 -2.1579110749837813 Q 2.009993827973943 -2.1025693916776906 2.008696957916463 -2.0523845162823378 Q 2.0074000878589833 -2.0021996408869853 1.9867107724863613 -1.9597953238057226 Q 1.9660214571137393 -1.9173910067244602 1.92857107594034 -1.8840781695200874 Q 1.8911206947669408 -1.8507653323157147 1.8413108910581555 -1.8293484106224702 Q 1.8305124378766147 -1.8234704187854178 1.8194890817953426 -1.8188168204512278 Q 1.8084657257140706 -1.8141632221170383 1.7963102260231318 -1.8103726468239394 L 1.6584473948571516 -2.1564849776644888 M 1.8730996592167806 -2.116368730102037 Q 1.8629812862871673 -2.1417714699802426 1.849720344875105 -2.1572502233845166 Q 1.8364594034630426 -2.17272897678879 1.8209208238873749 -2.180730623447105 Q 1.8053822443117071 -2.18873227010542 1.7888826699684934 -2.190569638858329 Q 1.7723830956252795 -2.1924070076112376 1.7557874568333633 -2.1905269781867127 L 1.8340241618069801 -1.9941093644855885 Q 1.848182457259689 -2.003428004820486 1.8594421599072102 -2.0147456263616483 Q 1.8707018625547316 -2.0260632479028104 1.8769793704086175 -2.0406522763774504 Q 1.8832568782625039 -2.05524130485209 1.88296642735812 -2.0737840780704127 Q 1.882675976453736 -2.0923268512887354 1.8730996592167806 -2.116368730102037 M 2.350063201795534 -1.722485026634572 L 2.3686955664620655 -1.4952201932691478 L 1.744812233754413 -1.444070960929761 L 1.75119591329755 -1.3662072064576671 L 1.617854233764089 -1.3552751552400446 L 1.5928381895544204 -1.6604037430775627 L 1.7261798690878811 -1.6713357942951852 L 1.7325635486310185 -1.5934720398230913 L 2.22310520180521 -1.6336892209448555 L 2.2167215222620733 -1.7115529754169496 L 2.350063201795534 -1.722485026634572" fill="#574848" fill-rule="nonzero"></path></g><g transform="matrix(1,0,0,1,0,0)"><g clip-path="url(#SvgjsClipPath1005)"><g clip-path="url(#a54f5514b-5610-4ad6-a958-1c55670b24acd7a25810-b3c0-427a-9087-ebe2933f0150)"><path d=" M -0.4460480984529762 -0.1875 L -0.48371914560429274 -0.20119046333209045 C -0.5578065282457961 -0.2280813842587892 -0.6559413136707275 -0.24630811282727194 -0.7598225300170462 -0.2655742475055667 C -0.8672080298193013 -0.28552342048459467 -0.9782685726526762 -0.30613335877628867 -1.0750447058054968 -0.3385702537317674 L -1.0972508749086871 -0.3460020074169208 L -0.8460932371314134 -2.0483042124196635 C -0.8722788467693111 -2.0452008427489403 -0.8984718807365648 -2.0470569250878894 -0.923061259562966 -2.054058067670407 C -1.0364753148021286 -2.0862499597571453 -1.1117877117873387 -2.219182576872699 -1.08424344987733 -2.3385360955965 C -1.0580504159100763 -2.452039242787932 -0.9503902159216568 -2.5398319374202374 -0.828252573689432 -2.5472488424466793 C -0.7158779245600808 -2.554235136370485 -0.6003850571012949 -2.493875338707851 -0.5340041283311093 -2.3938844709439704 C -0.4531012113409839 -2.2720363775566215 -0.452581508286078 -2.116719407433338 -0.45215832151279756 -1.9919238552917375 Z M -1.0350127219190366 -0.38447488213866343 C -0.9470566920409036 -0.3572572907203102 -0.8468059727495698 -0.33864449702532573 -0.7496066528234688 -0.32061080102009365 C -0.6597054486541168 -0.30391348429890463 -0.5740361122175694 -0.2880105708187868 -0.5022873933231423 -0.2662572858062999 L -0.5081229161967992 -1.9917382470578424 C -0.5085238299820123 -2.1090500752087986 -0.509006411390139 -2.2550643606492686 -0.5806214923561618 -2.3629250175302947 C -0.6361777489255946 -2.4466194823581997 -0.731892202980536 -2.4969267380730837 -0.8248596551738324 -2.4913881883736586 C -0.9212348745414398 -2.4855303925119347 -1.009294845030554 -2.41441274161275 -1.0296969021002855 -2.325951857338423 C -1.050878513752376 -2.2342391168062563 -0.99389678594663 -2.132347620727291 -0.9077894140780906 -2.1078918798292943 C -0.8654187664445542 -2.0958644662729022 -0.8159430356175196 -2.1053601835189677 -0.775413621664221 -2.1332682375674104 C -0.7376312095725674 -2.1592682389714133 -0.7139401745982177 -2.1969392861227295 -0.7104136181542138 -2.2366297508588233 C -0.707221156531221 -2.272704567198643 -0.7203176735148478 -2.307472701571843 -0.7437934029378794 -2.3252168487321994 C -0.7670389781508815 -2.3427456903412374 -0.8039824410253298 -2.340800516050018 -0.8198333841999575 -2.321185437892001 L -0.8633399542249309 -2.3563767590384814 C -0.8281709060665181 -2.399868480404743 -0.757966447678097 -2.4060455224287667 -0.710079523333203 -2.3698667654779655 C -0.6709533076281502 -2.3403402076299593 -0.6497197256705693 -2.2873750420056993 -0.6546717533508861 -2.231670298849151 C -0.6596831756660495 -2.1753047903799367 -0.6921349192802404 -2.122629173600553 -0.7436894623268984 -2.087163152267908 C -0.7573274887653246 -2.0777676056203096 -0.7719328102338594 -2.0698601232914866 -0.7872554269867182 -2.0635760579045392 Z" fill="#c5b3b3" transform="matrix(1,0,0,1,0,0)" fill-rule="nonzero"></path></g><g clip-path="url(#a54f5514b-5610-4ad6-a958-1c55670b24acd7a25810-b3c0-427a-9087-ebe2933f0150)"><path d=" M -0.4470281099279415 -0.18864334672079286 L -0.4474364480425105 -0.2446079414047948 L 1.040577338763849 -0.25526927835971946 C 1.02345683526938 -1.325894693112499 0.7354374022405716 -2.338788522794597 0.6902529337811878 -2.4913287937388127 L -0.8265524022669543 -2.4913287937388127 L -0.8265524022669543 -2.54730081275217 L 0.7316658429278264 -2.54730081275217 L 0.7377834903170037 -2.527618915629951 C 0.7412432277968055 -2.516512118913677 1.083415719146801 -1.4027068046275797 1.0969279985743523 -0.22779925974326876 L 1.0972546690660072 -0.19968332447286397 Z" fill="#c5b3b3" transform="matrix(1,0,0,1,0,0)" fill-rule="nonzero"></path></g><g clip-path="url(#a54f5514b-5610-4ad6-a958-1c55670b24acd7a25810-b3c0-427a-9087-ebe2933f0150)"><path d=" M 0.33395936799646564 -1.3504766476095447 L 0.47224492657755013 -1.4887770548493406 L 0.5183203145596293 -1.4427016668672612 C 0.5271868537972484 -1.4337643227331007 0.5392667293946773 -1.4287553329181828 0.5518560102597667 -1.4287958979838526 C 0.564529340470113 -1.4287958979838526 0.576445389086168 -1.4337256526761022 0.5853842816305481 -1.4426942425379055 L 0.8133705874883783 -1.6706805483957354 L 0.7735613334825919 -1.7104898024015216 L 0.6586549880429138 -1.5955760326324877 L 0.6188531583664836 -1.6353852866382739 L 0.7337595038061615 -1.750291632077952 L 0.6939502498003751 -1.7900934617543824 L 0.5790439043606972 -1.6751871163147043 L 0.5392420746842668 -1.7149963703204905 L 0.6541484201239447 -1.8299027157601686 L 0.6143465904475143 -1.8697119697659548 L 0.38636770891904026 -1.6417330882374808 C 0.37743036478487957 -1.6328665489998615 0.37242137496996164 -1.6207866734024328 0.3724619400356315 -1.6081973925373436 C 0.3724619400356315 -1.595524062326997 0.37739169472788103 -1.583608013710942 0.38635286026032856 -1.5746691211665618 L 0.4324430969011195 -1.5285863088551268 L 0.28175890829585337 -1.377894695920505 C 0.2758417177992829 -1.3789786480064512 0.2697983137036637 -1.379654261977829 0.2636509689970632 -1.379654261977829 L 0.2636361203383517 -1.379654261977829 C 0.25141567421870903 -1.379654261977829 0.2396332635310583 -1.377233930607839 0.22855616413220847 -1.3730614575098807 C 0.21154444930018834 -1.379541925740074 0.1930815522550493 -1.381234143981068 0.1751752360640244 -1.3779540905553511 L 0.031187792537687553 -1.5219563827403997 C 0.08107186147929091 -1.593697677305471 0.06787882821403901 -1.7002887738666557 -0.004345047759159337 -1.7725200741692098 C -0.08430507492109851 -1.8524578283430815 -0.20647983880010234 -1.8603350417895825 -0.2767585404820815 -1.7900934617543824 C -0.3470298178347049 -1.7198370330604706 -0.3391526043882036 -1.5976251475346879 -0.2592000015556204 -1.5176799690314604 C -0.21582706945905128 -1.4743218855936029 -0.16005550733830054 -1.4521602624665475 -0.10686018750401138 -1.4521602624665475 C -0.07146098513556876 -1.4521602624665475 -0.037435283697948796 -1.4623761396601247 -0.008769948055214805 -1.4822956153217295 L 0.12304159532761427 -1.3504766476095447 L -0.31580308856422046 -0.911624539388354 C -0.3544392985317907 -0.8729957537501396 -0.3544392985317907 -0.810104259777179 -0.31578823990550897 -0.7714532011508974 L -0.2848733324679682 -0.7405234450546447 C -0.26629551747108615 -0.7219278745724025 -0.24107316898399822 -0.7115022809498794 -0.2147876633492397 -0.7115537119083228 C -0.18850102177395134 -0.711496528027483 -0.16327655173615374 -0.7219229985875981 -0.14470199423051122 -0.7405234450546447 L 0.22849676949736208 -1.1137370574412297 L 0.6016955332252354 -0.7405234450546447 C 0.6202486219979204 -0.7219026556233075 0.6454805880323535 -0.7114788968218397 0.6717663536852523 -0.7115759848963903 L 0.6717812023439638 -0.7115759848963903 C 0.6983083311322285 -0.7115759848963903 0.7232021074622175 -0.721888378371593 0.7418668714626924 -0.7405531423720684 L 0.7727966275589448 -0.7714828984683204 C 0.7914237382461526 -0.7900317588167884 0.8018486382998193 -0.8152664873898863 0.8017440877171991 -0.8415537189283373 C 0.8017440877171991 -0.8680808477166018 0.7914613915594197 -0.8929597753878793 0.7727966275589448 -0.9116245393883542 Z M 0.4994328206784804 -1.6751871163147043 L 0.6188531583664836 -1.5557742029560573 L 0.5518560102597667 -1.4887770548493406 L 0.4324430969011195 -1.6081973925373436 Z M 0.25456358986556715 -1.2194149614916514 L 0.22849676949736208 -1.1933481411234463 L 0.20242994912915724 -1.2194149614916514 C 0.18574405537035088 -1.236156067193584 0.1857506965932345 -1.2632422947252342 0.20244479778786872 -1.2799752160468916 L 0.22848934516800634 -1.3060420364150964 L 0.2545561655362114 -1.27996036738818 C 0.2712505878192071 -1.263232177757905 0.27125390908626557 -1.2361472448977087 0.25456358986556715 -1.2194149614916514 M -0.21939074754983412 -1.5574892230372464 C -0.27738218414796834 -1.6154955082940923 -0.28526682192382535 -1.7019815209597777 -0.23695671080565106 -1.750291632077952 C -0.2156785828719353 -1.7715697600116675 -0.18702067155855684 -1.781934123792361 -0.1566328915052777 -1.781934123792361 C -0.11800410586706311 -1.781934123792361 -0.07662089403784811 -1.7651625637776145 -0.0441543017649455 -1.7327108201634234 C 0.013851983491900421 -1.6747045349065774 0.02172177260904573 -1.5882259465702484 -0.026573489850416854 -1.5399084111227181 C -0.07489844962730285 -1.4915983000045436 -0.16138446229298808 -1.4994829377804006 -0.21939074754983412 -1.5574892230372464 M -0.18450382390694153 -0.7803326990604311 C -0.20123069080939193 -0.763618174714841 -0.22833721155973163 -0.763618174714841 -0.2450640784621817 -0.7803326990604311 L -0.2759641372410111 -0.8112624551566834 C -0.29266145396219967 -0.8279746205365837 -0.29267630262091127 -0.8551328173200909 -0.2759938345584344 -0.8718152853825678 L 0.14279031141403564 -1.2906142800137494 C 0.12622663262125133 -1.2540865795832254 0.13262640452594887 -1.209599998083287 0.1626281194527266 -1.1796131318152208 L 0.18869493982093166 -1.1535463114470157 Z M 0.7329947978825144 -0.8112847281447508 L 0.7020501931275502 -0.7803549720484984 C 0.6860062173896719 -0.7642516016757737 0.6575710359569673 -0.7642738746638411 0.6415047872310216 -0.7803326990604311 L 0.26830602350314825 -1.1535463114470157 L 0.2943728438713533 -1.179613131815221 C 0.3243671344687753 -1.209599998083287 0.3307743307028286 -1.2540865795832257 0.3142032275806885 -1.2906142800137494 L 0.7329947978825144 -0.871815285382568 C 0.741020709157673 -0.8637962255404938 0.7455041537794793 -0.8528990757024015 0.7454453982121867 -0.8415537189283373 C 0.7455094609042414 -0.8302051460967315 0.7410253588117433 -0.8193037243727517 0.732994797882514 -0.8112847281447506" fill="#574848" transform="matrix(1,0,0,1,0,0)" fill-rule="nonzero"></path></g></g></g></g><defs><clipPath id="SvgjsClipPath1005"><path d=" M -1.0972508749086873 -2.5478022874923885 h 2.1945017498173747 v 2.3603022874923885 h -2.1945017498173747 Z"></path></clipPath><clipPath id="a54f5514b-5610-4ad6-a958-1c55670b24acd7a25810-b3c0-427a-9087-ebe2933f0150"><path d=" M -1.0972508749086871 -0.1875 L 1.097247244736652 -0.1875 L 1.097247244736652 -2.5477982428190082 L -1.0972508749086871 -2.5477982428190082 Z"></path></clipPath></defs></svg>